<?xml version="1.0" encoding="utf-8"?>
<svg viewBox="152.35 167.21 89.07 80.732" width="89.07" height="80.732" xmlns="http://www.w3.org/2000/svg">
  <ellipse style="fill: rgb(3, 105, 161); stroke: rgb(3, 105, 161); transform-origin: 197.859px 208.87px;" cx="197.859" cy="208.87" rx="62.484" ry="62.424" transform="matrix(0.999883055687, 0.01530100219, -0.017876002938, 0.999844014645, -1.584884655492, 0.112857163882)"/>
  <path d="M 195.657 214.19 L 205.326 217.256 Q 203.102 225.342 197.931 229.267 Q 192.759 233.192 184.808 233.192 Q 174.97 233.192 168.636 226.471 Q 162.302 219.749 162.302 208.092 Q 162.302 195.761 168.67 188.939 Q 175.037 182.116 185.414 182.116 Q 194.477 182.116 200.138 187.473 Q 203.507 190.64 205.191 196.57 L 195.32 198.928 Q 194.444 195.087 191.664 192.864 Q 188.885 190.64 184.909 190.64 Q 179.417 190.64 175.998 194.582 Q 172.578 198.524 172.578 207.351 Q 172.578 216.717 175.947 220.693 Q 179.316 224.668 184.707 224.668 Q 188.682 224.668 191.546 222.141 Q 194.41 219.615 195.657 214.19 Z" style="fill: rgb(229, 229, 229);"/>
  <path d="M 207.051 231.591 L 189.396 182.199 L 200.211 182.199 L 212.711 218.755 L 224.806 182.199 L 235.385 182.199 L 217.697 231.591 Z" style="fill: rgb(229, 229, 229);"/>
</svg>