<?xml version="1.0" encoding="utf-8"?>
<svg viewBox="159.145 178.147 203.088 58.195" xmlns="http://www.w3.org/2000/svg">
  <path d="M 195.657 214.19 L 205.326 217.256 Q 203.102 225.342 197.931 229.267 Q 192.759 233.192 184.808 233.192 Q 174.97 233.192 168.636 226.471 Q 162.302 219.749 162.302 208.092 Q 162.302 195.761 168.67 188.939 Q 175.037 182.116 185.414 182.116 Q 194.477 182.116 200.138 187.473 Q 203.507 190.64 205.191 196.57 L 195.32 198.928 Q 194.444 195.087 191.664 192.864 Q 188.885 190.64 184.909 190.64 Q 179.417 190.64 175.998 194.582 Q 172.578 198.524 172.578 207.351 Q 172.578 216.717 175.947 220.693 Q 179.316 224.668 184.707 224.668 Q 188.682 224.668 191.546 222.142 Q 194.41 219.615 195.657 214.19 Z" style="fill: rgb(229, 229, 229);"/>
  <path d="M 207.051 231.591 L 189.396 182.199 L 200.211 182.199 L 212.711 218.755 L 224.806 182.199 L 235.385 182.199 L 217.697 231.591 Z" style="fill: rgb(229, 229, 229);"/>
  <path d="M 228.163 231.591 L 228.163 182.199 L 243.089 182.199 L 252.05 215.891 L 260.911 182.199 L 275.87 182.199 L 275.87 231.591 L 266.605 231.591 L 266.605 192.711 L 256.801 231.591 L 247.199 231.591 L 237.428 192.711 L 237.428 231.591 Z" style="fill: rgb(229, 229, 229);"/>
  <path d="M 284.114 217.537 L 279.258 216.661 Q 280.077 213.729 282.077 212.32 Q 284.076 210.91 288.018 210.91 Q 291.598 210.91 293.35 211.758 Q 295.102 212.605 295.816 213.91 Q 296.53 215.214 296.53 218.699 L 296.473 224.945 Q 296.473 227.611 296.73 228.877 Q 296.987 230.144 297.692 231.591 L 292.398 231.591 Q 292.189 231.058 291.884 230.01 Q 291.751 229.534 291.693 229.382 Q 290.322 230.715 288.761 231.382 Q 287.199 232.048 285.428 232.048 Q 282.305 232.048 280.506 230.353 Q 278.706 228.658 278.706 226.069 Q 278.706 224.355 279.525 223.012 Q 280.344 221.67 281.82 220.956 Q 283.296 220.241 286.076 219.708 Q 289.827 219.004 291.275 218.394 L 291.275 217.861 Q 291.275 216.319 290.513 215.662 Q 289.751 215.005 287.637 215.005 Q 286.209 215.005 285.409 215.566 Q 284.609 216.128 284.114 217.537 Z M 291.275 221.879 Q 290.246 222.222 288.018 222.698 Q 285.79 223.174 285.105 223.631 Q 284.057 224.374 284.057 225.516 Q 284.057 226.64 284.895 227.459 Q 285.733 228.278 287.028 228.278 Q 288.475 228.278 289.789 227.325 Q 290.76 226.602 291.065 225.554 Q 291.275 224.869 291.275 222.945 Z M 301.865 231.591 L 301.865 203.674 L 307.216 203.674 L 307.216 218.489 L 313.481 211.367 L 320.07 211.367 L 313.158 218.756 L 320.565 231.591 L 314.795 231.591 L 309.711 222.508 L 307.216 225.116 L 307.216 231.591 Z M 334.973 225.154 L 340.305 226.049 Q 339.277 228.982 337.058 230.515 Q 334.84 232.048 331.507 232.048 Q 326.232 232.048 323.699 228.601 Q 321.7 225.84 321.7 221.632 Q 321.7 216.604 324.328 213.757 Q 326.956 210.91 330.974 210.91 Q 335.487 210.91 338.096 213.891 Q 340.705 216.871 340.591 223.022 L 327.184 223.022 Q 327.241 225.402 328.479 226.726 Q 329.717 228.049 331.564 228.049 Q 332.821 228.049 333.678 227.363 Q 334.535 226.678 334.973 225.154 Z M 335.278 219.746 Q 335.22 217.423 334.078 216.214 Q 332.935 215.005 331.298 215.005 Q 329.546 215.005 328.403 216.28 Q 327.261 217.556 327.28 219.746 Z M 350.215 231.591 L 344.864 231.591 L 344.864 211.367 L 349.834 211.367 L 349.834 214.243 Q 351.11 212.205 352.129 211.558 Q 353.148 210.91 354.443 210.91 Q 356.271 210.91 357.965 211.92 L 356.309 216.585 Q 354.957 215.709 353.795 215.709 Q 352.672 215.709 351.891 216.328 Q 351.11 216.947 350.663 218.566 Q 350.215 220.184 350.215 225.345 Z" style="fill: rgb(229, 229, 229);"/>
</svg>